# xmcd
#
# Track frame offsets: 
#        150
#        17885
#        37062
#        51242
#        68787
#        89645
#        107492
#        120707
#        139267
#        155267
#
# Disc length: 2250 seconds
#
# Revision: 3
# Processed by: cddbd v1.5.2PL0 Copyright (c) Steve Scherf et al.
# Submitted via: ExactAudioCopy v0.95a5
#
DISCID=8a08c80a
DTITLE=Nitty Gritty Dirt Band - The Rest Of The Dream
DYEAR=1900
DGENRE=Country
TTITLE0=From Small Things (Big Things One Day Come)
TTITLE1=Waitin' On A Dark Eyed Gal
TTITLE2=Junior's Grill
TTITLE3=Blow Out The Stars, Turn Off The Moon
TTITLE4=The Rest Of The Dream
TTITLE5=Just Enough Ashland City
TTITLE6=Hillbilly Hollywood
TTITLE7=Snowballs
TTITLE8=Wishing Well
TTITLE9=You Made Life Good Again
EXTD=
EXTT0=
EXTT1=
EXTT2=
EXTT3=
EXTT4=
EXTT5=
EXTT6=
EXTT7=
EXTT8=
EXTT9=
PLAYORDER=
